<svg width="130" height="32" viewBox="0 0 130 32" fill="none" xmlns="http://www.w3.org/2000/svg">
<g clip-path="url(#clip0_1_230)">
<mask id="mask0_1_230" style="mask-type:luminance" maskUnits="userSpaceOnUse" x="0" y="0" width="130" height="32">
<path d="M130 0H0V32H130V0Z" fill="white"/>
</mask>
<g mask="url(#mask0_1_230)">
<path d="M15.44 23H17.936L20.768 14.552L23.384 23H26.096L30.056 10.04H26.864L24.512 17.768L22.136 10.04H19.424L17.048 17.768L14.696 10.04L11.48 10.016L15.44 23Z" fill="black"/>
<path d="M40.8843 12.032C39.9723 10.304 38.1003 9.68 35.8203 9.68C32.7003 9.68 30.9243 11.168 30.2763 13.304L33.2283 14.24C33.6363 13.064 34.8603 12.656 35.8203 12.656C37.3563 12.656 38.0523 13.208 38.1963 14.408C35.7723 14.768 33.9003 15.056 32.6523 15.512C30.5643 16.28 29.8203 17.624 29.8203 19.424C29.8203 21.584 31.3563 23.36 34.1403 23.36C36.1323 23.36 37.4043 22.784 38.5563 21.416V23H41.4123V15.08C41.4123 13.904 41.3883 12.992 40.8843 12.032ZM37.8363 19.064C37.5723 19.616 36.6363 20.792 34.8363 20.792C33.7083 20.792 33.0123 20.264 33.0123 19.376C33.0123 18.728 33.3963 18.272 34.3563 17.888C35.1003 17.624 35.9883 17.432 38.1723 17.072C38.1483 17.696 38.1003 18.512 37.8363 19.064Z" fill="black"/>
<path d="M51.5819 10.04L48.1979 18.848L44.7899 10.04H41.4059L46.6379 22.904L44.5019 28.76H47.5259L54.8459 10.04H51.5819Z" fill="black"/>
<path d="M60.5664 12.56H64.3104V10.04H60.5664V6.44H57.3024V10.04H55.0944V12.56H57.3024V17.504C57.3024 19.064 57.1824 20.216 57.8304 21.392C58.8864 23.288 61.6224 23.504 64.3104 23V20.288C62.7744 20.504 61.4064 20.552 60.8304 19.64C60.5184 19.16 60.5664 18.32 60.5664 17.312V12.56Z" fill="black"/>
<path d="M71.3439 23.36C75.2319 23.36 77.9199 20.552 77.9199 16.52C77.9199 12.512 75.2559 9.68 71.3439 9.68C67.5039 9.68 64.7919 12.464 64.7919 16.52C64.7919 20.528 67.4319 23.36 71.3439 23.36ZM71.3439 20.312C69.3039 20.312 68.2479 18.848 68.2479 16.52C68.2479 14.264 69.2079 12.728 71.3439 12.728C73.4079 12.728 74.4639 14.216 74.4639 16.52C74.4639 18.752 73.4319 20.312 71.3439 20.312Z" fill="black"/>
<path d="M79.658 23H82.922V19.736H79.658V23Z" fill="black"/>
<path d="M100.233 9.728C98.5775 9.728 97.1135 10.496 96.2735 11.744C95.6015 10.52 94.3535 9.728 92.5055 9.728C90.9455 9.728 89.5775 10.4 88.7135 11.456V10.04H85.8335V23H89.1215V15.152C89.1215 13.664 90.0095 12.632 91.3775 12.632C92.7935 12.632 93.6575 13.64 93.6575 15.344V23H96.9215V15.152C96.9215 13.664 97.8095 12.632 99.1775 12.632C100.593 12.632 101.457 13.64 101.457 15.344V23H104.721V14.48C104.721 11.648 103.185 9.728 100.233 9.728Z" fill="black"/>
<path d="M109.431 17.432H118.551C118.935 12.728 116.559 9.68 112.479 9.68C108.639 9.68 105.927 12.44 105.927 16.688C105.927 20.576 108.687 23.36 112.671 23.36C115.167 23.36 117.447 21.992 118.431 19.616L115.167 18.68C114.687 19.736 113.751 20.312 112.479 20.312C110.703 20.312 109.671 19.28 109.431 17.432ZM112.623 12.512C114.183 12.512 114.999 13.256 115.239 15.008H109.527C109.863 13.352 110.871 12.512 112.623 12.512Z" fill="black"/>
<path fill-rule="evenodd" clip-rule="evenodd" d="M15.9168 0.5H114.083C116.822 0.499983 118.991 0.499968 120.724 0.676233C122.499 0.856828 123.981 1.23479 125.278 2.10104C126.315 2.79415 127.206 3.68478 127.899 4.72208C128.765 6.01852 129.143 7.5006 129.324 9.27589C129.5 11.0086 129.5 13.1783 129.5 15.9167V16.0833C129.5 18.8217 129.5 20.9914 129.324 22.7241C129.143 24.4994 128.765 25.9815 127.899 27.2779C127.206 28.3152 126.315 29.2059 125.278 29.899C123.981 30.7652 122.499 31.1432 120.724 31.3238C118.991 31.5 116.822 31.5 114.083 31.5H15.9168C13.1784 31.5 11.0086 31.5 9.27589 31.3238C7.5006 31.1432 6.01852 30.7652 4.72208 29.899C3.68478 29.2059 2.79415 28.3152 2.10104 27.2779C1.23479 25.9815 0.856828 24.4994 0.676233 22.7241C0.499968 20.9914 0.499983 18.8216 0.5 16.0832V15.9168C0.499983 13.1784 0.499968 11.0086 0.676233 9.27589C0.856828 7.5006 1.23479 6.01852 2.10104 4.72208C2.79415 3.68478 3.68478 2.79415 4.72208 2.10104C6.01852 1.23479 7.5006 0.856828 9.27589 0.676233C11.0086 0.499968 13.1784 0.499983 15.9168 0.5ZM9.5795 3.66083C8.04142 3.81729 7.11014 4.11346 6.38879 4.59545C5.67906 5.06968 5.06968 5.67906 4.59545 6.38879C4.11346 7.11014 3.81729 8.04142 3.66083 9.5795C3.50181 11.1427 3.5 13.1599 3.5 16C3.5 18.8401 3.50181 20.8573 3.66083 22.4205C3.81729 23.9586 4.11346 24.8899 4.59545 25.6112C5.06968 26.3209 5.67906 26.9303 6.38879 27.4046C7.11014 27.8865 8.04142 28.1827 9.5795 28.3392C11.1427 28.4982 13.1599 28.5 16 28.5H114C116.84 28.5 118.857 28.4982 120.42 28.3392C121.959 28.1827 122.89 27.8865 123.611 27.4046C124.321 26.9303 124.93 26.3209 125.405 25.6112C125.887 24.8899 126.183 23.9586 126.339 22.4205C126.498 20.8573 126.5 18.8401 126.5 16C126.5 13.1599 126.498 11.1427 126.339 9.5795C126.183 8.04142 125.887 7.11014 125.405 6.38879C124.93 5.67906 124.321 5.06968 123.611 4.59545C122.89 4.11346 121.959 3.81729 120.42 3.66083C118.857 3.50181 116.84 3.5 114 3.5H16C13.1599 3.5 11.1427 3.50181 9.5795 3.66083Z" fill="black"/>
</g>
</g>
<defs>
<clipPath id="clip0_1_230">
<rect width="130" height="32" fill="white"/>
</clipPath>
</defs>
</svg>
